<svg width="25" height="24" viewBox="0 0 25 24" fill="none" xmlns="http://www.w3.org/2000/svg">
<path d="M16.6836 2H8.61363C7.03678 2.00185 5.52506 2.62914 4.41016 3.74424C3.29525 4.85933 2.66821 6.37115 2.66663 7.948L2.66663 16.018C2.66848 17.5948 3.29577 19.1066 4.41086 20.2215C5.52596 21.3364 7.03778 21.9634 8.61463 21.965H16.6846C18.2615 21.9631 19.7732 21.3359 20.8881 20.2208C22.003 19.1057 22.63 17.5938 22.6316 16.017V7.947C22.6298 6.37015 22.0025 4.85844 20.8874 3.74353C19.7723 2.62862 18.2605 2.00159 16.6836 2V2ZM20.6236 16.017C20.6236 16.5344 20.5217 17.0468 20.3237 17.5248C20.1257 18.0028 19.8355 18.4371 19.4696 18.803C19.1038 19.1689 18.6694 19.4591 18.1914 19.6571C17.7134 19.8551 17.201 19.957 16.6836 19.957H8.61363C7.56885 19.9567 6.56695 19.5415 5.82827 18.8026C5.08959 18.0638 4.67463 17.0618 4.67463 16.017V7.947C4.67489 6.90222 5.09011 5.90032 5.82898 5.16165C6.56784 4.42297 7.56985 4.008 8.61463 4.008H16.6846C17.7294 4.00827 18.7313 4.42349 19.47 5.16235C20.2087 5.90122 20.6236 6.90322 20.6236 7.948V16.018V16.017Z" fill="#E2E8F0"/>
<path d="M12.6486 6.819C11.2801 6.82112 9.96817 7.36579 9.00053 8.33361C8.0329 9.30143 7.48848 10.6134 7.48663 11.982C7.48822 13.3509 8.03266 14.6633 9.00053 15.6314C9.96841 16.5995 11.2807 17.1441 12.6496 17.146C14.0187 17.1444 15.3313 16.5998 16.2994 15.6317C17.2675 14.6637 17.812 13.3511 17.8136 11.982C17.8115 10.6131 17.2666 9.30088 16.2983 8.33319C15.3301 7.3655 14.0176 6.82132 12.6486 6.82V6.819ZM12.6486 15.138C11.8119 15.138 11.0094 14.8056 10.4177 14.2139C9.82603 13.6222 9.49363 12.8198 9.49363 11.983C9.49363 11.1462 9.82603 10.3438 10.4177 9.75208C11.0094 9.1604 11.8119 8.828 12.6486 8.828C13.4854 8.828 14.2879 9.1604 14.8796 9.75208C15.4712 10.3438 15.8036 11.1462 15.8036 11.983C15.8036 12.8198 15.4712 13.6222 14.8796 14.2139C14.2879 14.8056 13.4854 15.138 12.6486 15.138Z" fill="#E2E8F0"/>
<path d="M17.8226 8.095C18.5058 8.095 19.0596 7.54118 19.0596 6.858C19.0596 6.17483 18.5058 5.621 17.8226 5.621C17.1395 5.621 16.5856 6.17483 16.5856 6.858C16.5856 7.54118 17.1395 8.095 17.8226 8.095Z" fill="#E2E8F0"/>
</svg>
