<svg width="25" height="24" viewBox="0 0 25 24" fill="none" xmlns="http://www.w3.org/2000/svg">
<path d="M22.6256 13.719V21.098H18.3476V14.213C18.3476 12.483 17.7286 11.303 16.1806 11.303C14.9986 11.303 14.2946 12.099 13.9856 12.868C13.8726 13.143 13.8436 13.526 13.8436 13.911V21.098H9.56363C9.56363 21.098 9.62163 9.438 9.56363 8.229H13.8436V10.053L13.8156 10.095H13.8436V10.053C14.4116 9.178 15.4266 7.927 17.6996 7.927C20.5146 7.927 22.6256 9.767 22.6256 13.719ZM5.08763 2.026C3.62463 2.026 2.66663 2.986 2.66663 4.249C2.66663 5.484 3.59663 6.473 5.03163 6.473H5.05963C6.55263 6.473 7.47963 5.484 7.47963 4.249C7.45363 2.986 6.55363 2.026 5.08863 2.026H5.08763ZM2.92063 21.098H7.19863V8.229H2.92063V21.098Z" fill="#E2E8F0"/>
</svg>
