<svg width="25" height="24" viewBox="0 0 25 24" fill="none" xmlns="http://www.w3.org/2000/svg">
<path d="M22.6666 5.90701C21.917 6.23439 21.1231 6.44905 20.3106 6.54401C21.1634 6.04324 21.8047 5.24912 22.1146 4.31001C21.3066 4.78034 20.4254 5.11161 19.5076 5.29001C19.1212 4.88522 18.6563 4.5634 18.1414 4.34419C17.6265 4.12498 17.0723 4.01298 16.5126 4.01501C14.2466 4.01501 12.4096 5.82501 12.4096 8.05501C12.4096 8.37101 12.4456 8.68001 12.5156 8.97501C10.8902 8.89771 9.29874 8.48242 7.84279 7.75565C6.38685 7.02888 5.09838 6.00659 4.05963 4.75401C3.69545 5.36841 3.50404 6.06979 3.50563 6.78401C3.50632 7.45198 3.67345 8.10924 3.99192 8.6964C4.31038 9.28357 4.77013 9.78212 5.32963 10.147C4.67911 10.126 4.04265 9.95234 3.47163 9.64001V9.69001C3.47163 11.648 4.88663 13.281 6.76163 13.653C6.40924 13.7465 6.04621 13.7939 5.68163 13.794C5.41663 13.794 5.15963 13.769 4.90863 13.719C5.17671 14.5269 5.68973 15.2313 6.37644 15.7344C7.06316 16.2374 7.88947 16.5141 8.74063 16.526C7.28069 17.6506 5.48845 18.2581 3.64563 18.253C3.31363 18.253 2.98763 18.233 2.66663 18.197C4.54788 19.3877 6.72922 20.0183 8.95563 20.015C16.5026 20.015 20.6286 13.858 20.6286 8.51901L20.6146 7.99601C21.4195 7.42968 22.1148 6.72186 22.6666 5.90701Z" fill="#E2E8F0"/>
</svg>
