<svg width="21" height="14" viewBox="0 0 21 14" fill="none" xmlns="http://www.w3.org/2000/svg">
<path d="M16.4786 0.0169912H4.81163C2.52163 0.0169912 0.666626 1.85199 0.666626 4.11599V9.88399C0.666626 12.148 2.52263 13.984 4.81163 13.984H16.4786C18.7686 13.984 20.6236 12.148 20.6236 9.88399V4.11599C20.6236 1.85199 18.7676 0.0159912 16.4786 0.0159912V0.0169912ZM13.6756 7.27999L8.21863 9.85499C8.18534 9.87102 8.14854 9.87836 8.11166 9.87634C8.07477 9.87433 8.039 9.86301 8.00766 9.84345C7.97632 9.82389 7.95044 9.79672 7.93243 9.76447C7.91441 9.73222 7.90485 9.69593 7.90463 9.65899V4.34999C7.90529 4.31286 7.91535 4.27651 7.93385 4.24432C7.95235 4.21212 7.9787 4.18513 8.01045 4.16587C8.04219 4.1466 8.07829 4.13568 8.11539 4.13413C8.15249 4.13258 8.18938 4.14044 8.22263 4.15699L13.6806 6.89199C13.717 6.91012 13.7475 6.93814 13.7686 6.97282C13.7898 7.0075 13.8007 7.04744 13.8002 7.08806C13.7997 7.12868 13.7877 7.16833 13.7657 7.20245C13.7436 7.23658 13.7124 7.2638 13.6756 7.28099V7.27999Z" fill="#E2E8F0"/>
</svg>
